<mxfile host="Electron" agent="Mozilla/5.0 (Windows NT 10.0; Win64; x64) AppleWebKit/537.36 (KHTML, like Gecko) draw.io/24.7.5 Chrome/126.0.6478.183 Electron/31.3.0 Safari/537.36" version="24.7.5" pages="2">
  <diagram name="Page-1" id="mZOD_tnza1Ey7wqmkClK">
    <mxGraphModel dx="1265" dy="1106" grid="1" gridSize="10" guides="1" tooltips="1" connect="1" arrows="1" fold="1" page="1" pageScale="1" pageWidth="827" pageHeight="1169" math="0" shadow="0">
      <root>
        <mxCell id="0" />
        <mxCell id="1" parent="0" />
        <mxCell id="ZpsFax3At80h3cH-HfD2-26" value="" style="rounded=0;whiteSpace=wrap;html=1;fillColor=none;strokeColor=none;" vertex="1" parent="1">
          <mxGeometry x="90" y="180" width="550" height="710" as="geometry" />
        </mxCell>
        <mxCell id="ZpsFax3At80h3cH-HfD2-17" value="" style="verticalLabelPosition=bottom;outlineConnect=0;align=center;dashed=0;html=1;verticalAlign=top;shape=mxgraph.pid2misc.column;columnType=common;strokeWidth=5;fillColor=#388ECC;strokeColor=none;" vertex="1" parent="1">
          <mxGeometry x="300" y="500" width="119.37" height="239" as="geometry" />
        </mxCell>
        <mxCell id="ZpsFax3At80h3cH-HfD2-18" value="" style="rounded=1;whiteSpace=wrap;html=1;absoluteArcSize=1;arcSize=0;strokeWidth=5;fillColor=#388ECC;strokeColor=none;" vertex="1" parent="1">
          <mxGeometry x="300" y="490" width="120" height="30" as="geometry" />
        </mxCell>
        <mxCell id="ZpsFax3At80h3cH-HfD2-1" value="" style="verticalLabelPosition=bottom;outlineConnect=0;align=center;dashed=0;html=1;verticalAlign=top;shape=mxgraph.pid2misc.column;columnType=common;strokeWidth=5;fillColor=none;" vertex="1" parent="1">
          <mxGeometry x="300" y="330" width="119.37" height="409" as="geometry" />
        </mxCell>
        <mxCell id="mlmWYDQaAf5w4Bjc56NV-6" value="" style="endArrow=blockThin;html=1;rounded=0;endFill=1;strokeWidth=5;exitX=0.998;exitY=0.16;exitDx=0;exitDy=0;exitPerimeter=0;" parent="1" edge="1" source="ZpsFax3At80h3cH-HfD2-4">
          <mxGeometry width="50" height="50" relative="1" as="geometry">
            <mxPoint x="545.3" y="783.9779999999998" as="sourcePoint" />
            <mxPoint x="560" y="785" as="targetPoint" />
            <Array as="points" />
          </mxGeometry>
        </mxCell>
        <mxCell id="ZpsFax3At80h3cH-HfD2-3" value="" style="shape=mxgraph.pid.heat_exchangers.heat_exchanger_(straight_tubes);html=1;pointerEvents=1;align=center;verticalLabelPosition=bottom;verticalAlign=top;dashed=0;strokeWidth=5;rotation=90;" vertex="1" parent="1">
          <mxGeometry x="309.44" y="570.45" width="100.75" height="119.37" as="geometry" />
        </mxCell>
        <mxCell id="ZpsFax3At80h3cH-HfD2-4" value="" style="shape=mxgraph.pid.pumps.centrifugal_pump_1;html=1;pointerEvents=1;align=center;verticalLabelPosition=bottom;verticalAlign=top;dashed=0;strokeWidth=5;" vertex="1" parent="1">
          <mxGeometry x="395" y="775" width="70" height="67" as="geometry" />
        </mxCell>
        <mxCell id="ZpsFax3At80h3cH-HfD2-6" value="" style="endArrow=blockThin;html=1;rounded=0;endFill=1;strokeWidth=5;entryX=0.07;entryY=0;entryDx=0;entryDy=0;entryPerimeter=0;edgeStyle=elbowEdgeStyle;" edge="1" parent="1" target="ZpsFax3At80h3cH-HfD2-3">
          <mxGeometry width="50" height="50" relative="1" as="geometry">
            <mxPoint x="560" y="587" as="sourcePoint" />
            <mxPoint x="423" y="544.72" as="targetPoint" />
          </mxGeometry>
        </mxCell>
        <mxCell id="ZpsFax3At80h3cH-HfD2-7" value="" style="endArrow=blockThin;html=1;rounded=0;endFill=1;strokeWidth=5;" edge="1" parent="1">
          <mxGeometry width="50" height="50" relative="1" as="geometry">
            <mxPoint x="419.37" y="670" as="sourcePoint" />
            <mxPoint x="560" y="670" as="targetPoint" />
            <Array as="points" />
          </mxGeometry>
        </mxCell>
        <mxCell id="ZpsFax3At80h3cH-HfD2-8" value="" style="endArrow=blockThin;html=1;rounded=0;endFill=1;strokeWidth=5;entryX=-0.006;entryY=0.45;entryDx=0;entryDy=0;entryPerimeter=0;" edge="1" parent="1" source="ZpsFax3At80h3cH-HfD2-1" target="ZpsFax3At80h3cH-HfD2-4">
          <mxGeometry width="50" height="50" relative="1" as="geometry">
            <mxPoint x="358" y="748.9999999999999" as="sourcePoint" />
            <mxPoint x="389.3118599999998" y="804.7580000000002" as="targetPoint" />
            <Array as="points">
              <mxPoint x="358.5" y="805.07" />
            </Array>
          </mxGeometry>
        </mxCell>
        <mxCell id="ZpsFax3At80h3cH-HfD2-10" value="" style="endArrow=blockThin;html=1;rounded=0;endFill=1;strokeWidth=5;" edge="1" parent="1">
          <mxGeometry width="50" height="50" relative="1" as="geometry">
            <mxPoint x="360" y="330" as="sourcePoint" />
            <mxPoint x="560" y="300" as="targetPoint" />
            <Array as="points">
              <mxPoint x="360" y="300" />
            </Array>
          </mxGeometry>
        </mxCell>
        <mxCell id="ZpsFax3At80h3cH-HfD2-19" value="" style="endArrow=blockThin;html=1;rounded=0;endFill=1;strokeWidth=5;edgeStyle=elbowEdgeStyle;" edge="1" parent="1" target="ZpsFax3At80h3cH-HfD2-1">
          <mxGeometry width="50" height="50" relative="1" as="geometry">
            <mxPoint x="240" y="535" as="sourcePoint" />
            <mxPoint x="110" y="440" as="targetPoint" />
          </mxGeometry>
        </mxCell>
        <mxCell id="ZpsFax3At80h3cH-HfD2-29" value="" style="verticalLabelPosition=bottom;align=center;html=1;verticalAlign=top;pointerEvents=1;dashed=0;shape=mxgraph.pid2valves.valve;valveType=gate;actuator=diaph;strokeWidth=5;" vertex="1" parent="1">
          <mxGeometry x="490" y="560" width="40" height="40" as="geometry" />
        </mxCell>
        <mxCell id="ZpsFax3At80h3cH-HfD2-36" style="edgeStyle=orthogonalEdgeStyle;rounded=0;orthogonalLoop=1;jettySize=auto;html=1;exitX=0.5;exitY=1;exitDx=0;exitDy=0;exitPerimeter=0;fontFamily=Helvetica;fontSize=45;fontColor=default;endArrow=none;endFill=0;dashed=1;strokeWidth=3;" edge="1" parent="1" source="ZpsFax3At80h3cH-HfD2-32">
          <mxGeometry relative="1" as="geometry">
            <mxPoint x="510.20000000000005" y="300" as="targetPoint" />
          </mxGeometry>
        </mxCell>
        <mxCell id="ZpsFax3At80h3cH-HfD2-32" value="AT" style="dashed=0;outlineConnect=0;align=center;html=1;shape=mxgraph.pid.engines.electric_motor;fontSize=16;strokeColor=default;strokeWidth=3;verticalAlign=middle;fontFamily=Helvetica;fontColor=default;fillColor=default;fontStyle=1" vertex="1" parent="1">
          <mxGeometry x="490" y="210" width="40" height="40" as="geometry" />
        </mxCell>
        <mxCell id="ZpsFax3At80h3cH-HfD2-35" style="edgeStyle=orthogonalEdgeStyle;rounded=0;orthogonalLoop=1;jettySize=auto;html=1;exitX=0.5;exitY=1;exitDx=0;exitDy=0;exitPerimeter=0;fontFamily=Helvetica;fontSize=45;fontColor=default;entryX=0.485;entryY=0.06;entryDx=0;entryDy=0;entryPerimeter=0;endArrow=none;endFill=0;dashed=1;strokeWidth=3;" edge="1" parent="1" source="ZpsFax3At80h3cH-HfD2-33" target="ZpsFax3At80h3cH-HfD2-29">
          <mxGeometry relative="1" as="geometry">
            <mxPoint x="670" y="580" as="targetPoint" />
          </mxGeometry>
        </mxCell>
        <mxCell id="ZpsFax3At80h3cH-HfD2-33" value="AC" style="dashed=0;outlineConnect=0;align=center;html=1;shape=mxgraph.pid.engines.electric_motor;fontSize=16;strokeColor=default;strokeWidth=3;verticalAlign=middle;fontFamily=Helvetica;fontColor=default;fillColor=default;fontStyle=1" vertex="1" parent="1">
          <mxGeometry x="580" y="210" width="40" height="40" as="geometry" />
        </mxCell>
        <mxCell id="ZpsFax3At80h3cH-HfD2-34" style="edgeStyle=orthogonalEdgeStyle;rounded=0;orthogonalLoop=1;jettySize=auto;html=1;entryX=0;entryY=0.5;entryDx=0;entryDy=0;entryPerimeter=0;fontFamily=Helvetica;fontSize=45;fontColor=default;endArrow=none;endFill=0;dashed=1;strokeWidth=3;" edge="1" parent="1" source="ZpsFax3At80h3cH-HfD2-32" target="ZpsFax3At80h3cH-HfD2-33">
          <mxGeometry relative="1" as="geometry" />
        </mxCell>
        <mxCell id="ZpsFax3At80h3cH-HfD2-37" value="" style="verticalLabelPosition=bottom;align=center;html=1;verticalAlign=top;pointerEvents=1;dashed=0;shape=mxgraph.pid2valves.valve;valveType=gate;actuator=diaph;strokeWidth=5;" vertex="1" parent="1">
          <mxGeometry x="394" y="271" width="40" height="40" as="geometry" />
        </mxCell>
        <mxCell id="ZpsFax3At80h3cH-HfD2-38" value="" style="verticalLabelPosition=bottom;align=center;html=1;verticalAlign=top;pointerEvents=1;dashed=0;shape=mxgraph.pid2valves.valve;valveType=gate;actuator=diaph;strokeWidth=5;" vertex="1" parent="1">
          <mxGeometry x="488" y="758" width="40" height="40" as="geometry" />
        </mxCell>
        <mxCell id="ZpsFax3At80h3cH-HfD2-39" style="edgeStyle=elbowEdgeStyle;rounded=0;orthogonalLoop=1;jettySize=auto;html=1;exitX=0.5;exitY=1;exitDx=0;exitDy=0;exitPerimeter=0;fontFamily=Helvetica;fontSize=45;fontColor=default;entryX=0.515;entryY=0.1;entryDx=0;entryDy=0;entryPerimeter=0;endArrow=none;endFill=0;dashed=1;strokeWidth=3;elbow=vertical;" edge="1" parent="1" source="ZpsFax3At80h3cH-HfD2-42" target="ZpsFax3At80h3cH-HfD2-38">
          <mxGeometry relative="1" as="geometry">
            <mxPoint x="130" y="1062" as="targetPoint" />
            <mxPoint x="221" y="750" as="sourcePoint" />
            <Array as="points">
              <mxPoint x="370" y="750" />
            </Array>
          </mxGeometry>
        </mxCell>
        <mxCell id="ZpsFax3At80h3cH-HfD2-40" value="PT" style="dashed=0;outlineConnect=0;align=center;html=1;shape=mxgraph.pid.engines.electric_motor;fontSize=16;strokeColor=default;strokeWidth=3;verticalAlign=middle;fontFamily=Helvetica;fontColor=default;fillColor=default;fontStyle=1" vertex="1" parent="1">
          <mxGeometry x="300" y="210" width="40" height="40" as="geometry" />
        </mxCell>
        <mxCell id="ZpsFax3At80h3cH-HfD2-41" value="PC" style="dashed=0;outlineConnect=0;align=center;html=1;shape=mxgraph.pid.engines.electric_motor;fontSize=16;strokeColor=default;strokeWidth=3;verticalAlign=middle;fontFamily=Helvetica;fontColor=default;fillColor=default;fontStyle=1" vertex="1" parent="1">
          <mxGeometry x="394" y="210" width="40" height="40" as="geometry" />
        </mxCell>
        <mxCell id="ZpsFax3At80h3cH-HfD2-42" value="LC" style="dashed=0;outlineConnect=0;align=center;html=1;shape=mxgraph.pid.engines.electric_motor;fontSize=16;strokeColor=default;strokeWidth=3;verticalAlign=middle;fontFamily=Helvetica;fontColor=default;fillColor=default;fontStyle=1" vertex="1" parent="1">
          <mxGeometry x="210" y="670" width="40" height="40" as="geometry" />
        </mxCell>
        <mxCell id="ZpsFax3At80h3cH-HfD2-43" value="LT" style="dashed=0;outlineConnect=0;align=center;html=1;shape=mxgraph.pid.engines.electric_motor;fontSize=16;strokeColor=default;strokeWidth=3;verticalAlign=middle;fontFamily=Helvetica;fontColor=default;fillColor=default;fontStyle=1" vertex="1" parent="1">
          <mxGeometry x="210" y="599.5" width="40" height="40" as="geometry" />
        </mxCell>
        <mxCell id="ZpsFax3At80h3cH-HfD2-44" style="edgeStyle=elbowEdgeStyle;rounded=0;orthogonalLoop=1;jettySize=auto;html=1;exitX=0.5;exitY=1;exitDx=0;exitDy=0;exitPerimeter=0;fontFamily=Helvetica;fontSize=45;fontColor=default;endArrow=none;endFill=0;dashed=1;strokeWidth=3;elbow=vertical;" edge="1" parent="1" source="ZpsFax3At80h3cH-HfD2-43">
          <mxGeometry relative="1" as="geometry">
            <mxPoint x="230" y="670" as="targetPoint" />
            <mxPoint x="240" y="720" as="sourcePoint" />
            <Array as="points" />
          </mxGeometry>
        </mxCell>
        <mxCell id="ZpsFax3At80h3cH-HfD2-45" style="edgeStyle=elbowEdgeStyle;rounded=0;orthogonalLoop=1;jettySize=auto;html=1;fontFamily=Helvetica;fontSize=45;fontColor=default;endArrow=none;endFill=0;dashed=1;strokeWidth=3;elbow=vertical;entryX=0.5;entryY=0;entryDx=0;entryDy=0;entryPerimeter=0;" edge="1" parent="1" target="ZpsFax3At80h3cH-HfD2-43">
          <mxGeometry relative="1" as="geometry">
            <mxPoint x="230" y="560" as="targetPoint" />
            <mxPoint x="300" y="560.0999999999999" as="sourcePoint" />
            <Array as="points">
              <mxPoint x="270" y="560" />
            </Array>
          </mxGeometry>
        </mxCell>
        <mxCell id="ZpsFax3At80h3cH-HfD2-46" style="edgeStyle=orthogonalEdgeStyle;rounded=0;orthogonalLoop=1;jettySize=auto;html=1;fontFamily=Helvetica;fontSize=45;fontColor=default;endArrow=none;endFill=0;dashed=1;strokeWidth=3;entryX=0;entryY=0.5;entryDx=0;entryDy=0;entryPerimeter=0;" edge="1" parent="1" target="ZpsFax3At80h3cH-HfD2-41">
          <mxGeometry relative="1" as="geometry">
            <mxPoint x="340" y="229.8" as="sourcePoint" />
            <mxPoint x="350" y="230" as="targetPoint" />
          </mxGeometry>
        </mxCell>
        <mxCell id="ZpsFax3At80h3cH-HfD2-47" style="edgeStyle=orthogonalEdgeStyle;rounded=0;orthogonalLoop=1;jettySize=auto;html=1;entryX=0.505;entryY=0.125;entryDx=0;entryDy=0;entryPerimeter=0;fontFamily=Helvetica;fontSize=45;fontColor=default;dashed=1;strokeColor=default;strokeWidth=3;align=center;verticalAlign=middle;labelBackgroundColor=default;endArrow=none;endFill=0;" edge="1" parent="1" source="ZpsFax3At80h3cH-HfD2-41" target="ZpsFax3At80h3cH-HfD2-37">
          <mxGeometry relative="1" as="geometry" />
        </mxCell>
        <mxCell id="ZpsFax3At80h3cH-HfD2-48" style="edgeStyle=orthogonalEdgeStyle;rounded=0;orthogonalLoop=1;jettySize=auto;html=1;exitX=0.5;exitY=1;exitDx=0;exitDy=0;exitPerimeter=0;entryX=0.327;entryY=0.183;entryDx=0;entryDy=0;entryPerimeter=0;fontFamily=Helvetica;fontSize=45;fontColor=default;dashed=1;strokeColor=default;strokeWidth=3;align=center;verticalAlign=middle;labelBackgroundColor=default;endArrow=none;endFill=0;" edge="1" parent="1" source="ZpsFax3At80h3cH-HfD2-40">
          <mxGeometry relative="1" as="geometry">
            <mxPoint x="370" y="273" as="sourcePoint" />
            <mxPoint x="319.8499999999999" y="332.92999999999984" as="targetPoint" />
          </mxGeometry>
        </mxCell>
      </root>
    </mxGraphModel>
  </diagram>
  <diagram id="GO1eHlt-Fpxj6D1RMlmo" name="Page-2">
    <mxGraphModel dx="1054" dy="921" grid="1" gridSize="10" guides="1" tooltips="1" connect="1" arrows="1" fold="1" page="1" pageScale="1" pageWidth="827" pageHeight="1169" math="0" shadow="0">
      <root>
        <mxCell id="0" />
        <mxCell id="1" parent="0" />
        <mxCell id="EBZ6xiLnmezBSp0kUDlZ-1" value="" style="verticalLabelPosition=bottom;outlineConnect=0;align=center;dashed=0;html=1;verticalAlign=top;shape=mxgraph.pid2misc.column;columnType=fluid;strokeColor=default;strokeWidth=5;fontFamily=Helvetica;fontSize=45;fontColor=default;fillColor=default;" vertex="1" parent="1">
          <mxGeometry x="320" y="200" width="120" height="500" as="geometry" />
        </mxCell>
        <mxCell id="Lr7PV6MX0AsS87vuUVeT-1" value="" style="endArrow=blockThin;html=1;rounded=0;endFill=1;strokeWidth=5;edgeStyle=elbowEdgeStyle;" edge="1" parent="1">
          <mxGeometry width="50" height="50" relative="1" as="geometry">
            <mxPoint x="379.76" y="755" as="sourcePoint" />
            <mxPoint x="379.76" y="700" as="targetPoint" />
          </mxGeometry>
        </mxCell>
        <mxCell id="Lr7PV6MX0AsS87vuUVeT-3" value="" style="endArrow=blockThin;html=1;rounded=0;endFill=1;strokeWidth=5;edgeStyle=elbowEdgeStyle;" edge="1" parent="1">
          <mxGeometry width="50" height="50" relative="1" as="geometry">
            <mxPoint x="379.95" y="200" as="sourcePoint" />
            <mxPoint x="379.95" y="145" as="targetPoint" />
          </mxGeometry>
        </mxCell>
        <mxCell id="Lr7PV6MX0AsS87vuUVeT-4" value="&lt;font face=&quot;IBM Plex sans&quot;&gt;&lt;b&gt;T&lt;sub&gt;out&lt;/sub&gt;&lt;/b&gt;&lt;/font&gt;" style="text;html=1;align=center;verticalAlign=middle;resizable=0;points=[];autosize=1;strokeColor=none;fillColor=none;fontFamily=Helvetica;fontSize=45;fontColor=default;" vertex="1" parent="1">
          <mxGeometry x="390" y="110" width="110" height="80" as="geometry" />
        </mxCell>
        <mxCell id="Lr7PV6MX0AsS87vuUVeT-5" value="&lt;font face=&quot;IBM Plex sans&quot;&gt;&lt;b&gt;T&lt;span style=&quot;font-size: 37.5px;&quot;&gt;&lt;sub&gt;in&lt;/sub&gt;&lt;/span&gt;&lt;/b&gt;&lt;/font&gt;" style="text;html=1;align=center;verticalAlign=middle;resizable=0;points=[];autosize=1;strokeColor=none;fillColor=none;fontFamily=Helvetica;fontSize=45;fontColor=default;" vertex="1" parent="1">
          <mxGeometry x="415" y="715" width="80" height="70" as="geometry" />
        </mxCell>
      </root>
    </mxGraphModel>
  </diagram>
</mxfile>
